<?xml version="1.0" encoding="UTF-8" standalone="no"?>
<!-- Generator: Adobe Illustrator 27.8.1, SVG Export Plug-In . SVG Version: 6.00 Build 0)  -->

<svg
   xmlns:dc="http://purl.org/dc/elements/1.1/"
   xmlns:cc="http://creativecommons.org/ns#"
   xmlns:rdf="http://www.w3.org/1999/02/22-rdf-syntax-ns#"
   xmlns:svg="http://www.w3.org/2000/svg"
   xmlns="http://www.w3.org/2000/svg"
   xmlns:sodipodi="http://sodipodi.sourceforge.net/DTD/sodipodi-0.dtd"
   xmlns:inkscape="http://www.inkscape.org/namespaces/inkscape"
   version="1.1"
   id="Calque_1"
   x="0px"
   y="0px"
   viewBox="0 0 100 100"
   style="enable-background:new 0 0 100 100;"
   xml:space="preserve"
   sodipodi:docname="brush.svg"
   inkscape:version="0.92.5 (2060ec1f9f, 2020-04-08)"><metadata
   id="metadata13"><rdf:RDF><cc:Work
       rdf:about=""><dc:format>image/svg+xml</dc:format><dc:type
         rdf:resource="http://purl.org/dc/dcmitype/StillImage" /><dc:title></dc:title></cc:Work></rdf:RDF></metadata><defs
   id="defs11" /><sodipodi:namedview
   pagecolor="#ffffff"
   bordercolor="#666666"
   borderopacity="1"
   objecttolerance="10"
   gridtolerance="10"
   guidetolerance="10"
   inkscape:pageopacity="0"
   inkscape:pageshadow="2"
   inkscape:window-width="2560"
   inkscape:window-height="1403"
   id="namedview9"
   showgrid="false"
   inkscape:pagecheckerboard="true"
   inkscape:zoom="9.44"
   inkscape:cx="41.854754"
   inkscape:cy="64.232817"
   inkscape:window-x="1920"
   inkscape:window-y="0"
   inkscape:window-maximized="1"
   inkscape:current-layer="Calque_1" />
<style
   type="text/css"
   id="style2">
	.st0{fill:#2F54A2;}
	.st1{fill:#FFFFFF;}
</style>

<path
   class="st1"
   d="m 60.5,60.511864 5.4,-5.4 c 1.6,-1.6 2.4,-3.7 2.4,-5.9 -0.1,-1.9 -0.8,-3.7 -2.1,-5.2 l 14.4,-14.5 c 1,-1 1.8,-2.3 2.2,-3.6 0.8,-2.6 0.3,-5.2 -1.7,-7.2 l -0.1,-0.1 v 0 c -2,-1.9 -4.6,-2.5 -7.2,-1.6 -1.3,0.4 -2.5,1.2 -3.5,2.2 l -14.5,14.6 c -1.5,-1.1 -3.2,-1.7 -4.9,-1.8 -2.2,-0.1 -4.2,0.8 -5.9,2.4 l -5.4,5.4 -27.6,20.6 28.1,27.8 z m 14.3,-40.1 c 1.4,-0.5 2.5,-0.2 3.6,0.8 1,1.1 1.3,2.2 0.8,3.6 -0.2,0.8 -0.7,1.5 -1.3,2.1 l -14.3,14.6 -5.2,-5.2 14.4,-14.5 c 0.5,-0.7 1.3,-1.1 2,-1.4 z m -24.1,15.2 c 1.2,0 2.5,0.6 3.4,1.5 l 8.9,8.9 c 0.9,0.9 1.5,2.2 1.6,3.4 0,1.2 -0.4,2.3 -1.3,3.2 l -3.8,3.8 -15.8,-15.7 3.8,-3.8 c 0.9,-0.9 2,-1.4 3.2,-1.3 z m -33.2,25.2 23.6,-17.6 16,15.9 -17.4,23.7 -5.5,-5.4 13.2,-13.3 -2.5,-2.5 -13.3,13.2 -2.7,-2.7 z"
   id="path6"
   inkscape:connector-curvature="0"
   style="fill:#ffffff" />
</svg>