<?xml version="1.0" encoding="UTF-8"?><svg id="Outline" xmlns="http://www.w3.org/2000/svg" viewBox="0 0 64 63.96"><path d="m61.66,24.13L41.43,3.9c-5.21-5.2-13.65-5.2-18.86,0L2.34,24.13C.84,25.62,0,27.66,0,29.78v26.18C0,60.38,3.58,63.96,8,63.96h48c4.42,0,8-3.58,8-8v-26.18c0-2.12-.84-4.16-2.34-5.66Zm-21.66,34.5h-16v-10.49c0-4.42,3.58-8,8-8s8,3.58,8,8v10.49Zm18.67-2.67c0,1.47-1.19,2.67-2.67,2.67h-10.67v-10.49c0-7.36-5.97-13.33-13.33-13.33s-13.33,5.97-13.33,13.33v10.49h-10.67c-1.47,0-2.67-1.19-2.67-2.67v-26.18c0-.71.28-1.38.78-1.89L26.34,7.68c3.13-3.11,8.19-3.11,11.32,0l20.23,20.23c.5.5.78,1.17.78,1.88v26.18Z" style="fill:#fff;"/></svg>