<?xml version="1.0" encoding="UTF-8"?><svg id="Capa_1" xmlns="http://www.w3.org/2000/svg" viewBox="0 0 64 64.62"><path d="m8,28.77c1.95-13.25,14.27-22.41,27.52-20.46,4.52.67,8.76,2.59,12.23,5.56l-3.13,3.13c-1.05,1.05-1.05,2.75,0,3.79.5.5,1.19.79,1.9.79h12.3c1.48,0,2.68-1.2,2.68-2.68V6.59c0-1.48-1.2-2.68-2.68-2.68-.71,0-1.39.28-1.9.79l-3.49,3.49C40.14-3.68,19.75-2.51,7.89,10.8,3.69,15.51.97,21.35.05,27.59c-.36,2.21,1.14,4.3,3.36,4.66.2.03.4.05.6.05,2.03-.02,3.73-1.53,3.99-3.54Z" style="fill:#fff;"/><path d="m59.99,32.31c-2.03.02-3.73,1.53-3.99,3.54-1.95,13.25-14.27,22.41-27.52,20.46-4.52-.67-8.76-2.59-12.23-5.56l3.13-3.13c1.05-1.05,1.05-2.75,0-3.79-.5-.5-1.19-.79-1.9-.79H5.17c-1.48,0-2.68,1.2-2.68,2.68v12.3c0,1.48,1.2,2.68,2.68,2.68.71,0,1.39-.28,1.9-.79l3.49-3.49c13.3,11.86,33.69,10.69,45.55-2.61,4.2-4.71,6.93-10.56,7.84-16.8.36-2.21-1.14-4.3-3.35-4.66-.2-.03-.4-.05-.61-.05Z" style="fill:#fff;"/></svg>